<svg width="896" height="896" xmlns="http://www.w3.org/2000/svg">
	<defs>
		<mask id="commit">
			<rect x="0" y="0" width="896" height="896" fill="#000" />
			<circle r="448" cy="448" cx="448" stroke-width="0" fill="#FFF" />
		</mask>
	</defs>

	<g mask="url(#commit)">
		<circle r="448" cy="448" cx="448" stroke-width="0" fill="#f8007f" />
		<path transform="rotate(90, 448, 448)" fill="#FFF" d="m694.875,383.417847c-28.5,-110.218994 -127.75,-192.000061 -246.875,-192.000061c-119.093994,0 -218.375,81.781067 -246.906006,192.000061l-201.093994,0l0,127.999878l201.093994,0c28.531006,110.25 127.812012,192 246.906006,192c119.125,0 218.375,-81.75 246.875,-192l201.125,0l0,-127.999878l-201.125,0zm-246.875,191.999878c-70.656006,0 -128,-57.375 -128,-127.999878c0,-70.656006 57.343994,-128 128,-128c70.625,0 128,57.343994 128,128c0,70.624878 -57.375,127.999878 -128,127.999878z" />
	</g>
</svg>