<?xml version="1.0" ?><svg height="16px" version="1.1" viewBox="0 0 16 16" width="16px" xmlns="http://www.w3.org/2000/svg" xmlns:sketch="http://www.bohemiancoding.com/sketch/ns" xmlns:xlink="http://www.w3.org/1999/xlink"><title/><defs/><g fill="none" fill-rule="evenodd" id="Icons with numbers" stroke="none" stroke-width="1"><g fill="#000000" id="Group" transform="translate(-480.000000, 0.000000)"><path d="M495,11 L495,15 L481,15 L481,11 L480.975342,11 L484,2 L486,2 L486,3 L484.571429,3 L482,11 L494,11 L491.428571,3 L490,3 L490,2 L492,2 L495.00354,11 Z M487,1 L489,1 L489,6 L491,6 L488,10 L485,6 L487,6 Z M486,12 L486,13 L490,13 L490,12 Z M486,12" id="Rectangle 142 copy"/></g></g></svg>