<?xml version="1.0" ?><svg height="16px" version="1.1" viewBox="0 0 16 16" width="16px" xmlns="http://www.w3.org/2000/svg" xmlns:sketch="http://www.bohemiancoding.com/sketch/ns" xmlns:xlink="http://www.w3.org/1999/xlink"><title/><defs/><g fill="none" fill-rule="evenodd" id="Icons with numbers" stroke="none" stroke-width="1"><g fill="#000000" id="Group" transform="translate(-480.000000, -288.000000)"><path d="M488,299 C489.656854,299 491,297.656854 491,296 C491,294.343146 489.656854,293 488,293 C486.343146,293 485,294.343146 485,296 C485,297.656854 486.343146,299 488,299 Z M480,296 C480,296 482.997314,290.991516 488,290.991516 C493.002686,290.991516 496,296 496,296 C496,296 493.014404,301.029724 488,301.029724 C482.985596,301.029724 480,296 480,296 Z M487,296 C487,295.443865 487.447715,295 488,295 C488.556135,295 489,295.447715 489,296 C489,296.556135 488.552285,297 488,297 C487.443865,297 487,296.552285 487,296 Z M487,296" id="Rectangle 304"/></g></g></svg>