<?xml version="1.0" ?><!DOCTYPE svg  PUBLIC '-//W3C//DTD SVG 1.1//EN'  'http://www.w3.org/Graphics/SVG/1.1/DTD/svg11.dtd'><svg enable-background="new 0 0 512 512" height="512px" id="Layer_1" version="1.1" viewBox="0 0 512 512" width="512px" xml:space="preserve" xmlns="http://www.w3.org/2000/svg" xmlns:xlink="http://www.w3.org/1999/xlink"><path d="M256,512C114.625,512,0,397.391,0,256C0,114.625,114.625,0,256,0s256,114.625,256,256C512,397.391,397.375,512,256,512z   M256,64C149.969,64,64,149.969,64,256s85.969,192,192,192c106.03,0,192-85.969,192-192S362.031,64,256,64z M224,320h64v64h-64V320z   M224,128h64v160h-64V128z"/></svg>